<?xml version="1.0" standalone="no"?>
<svg xmlns="http://www.w3.org/2000/svg" xmlns:xlink="http://www.w3.org/1999/xlink" height="2000px" width="2000px">
  <defs>
    <pattern id="doodad" width="205.54" height="178" viewBox="0 0 34.64101615137755 30" patternUnits="userSpaceOnUse" patternTransform="rotate(310)">
      <rect width="100%" height="100%" fill="rgba(254, 215, 215,1)"/>
      <path d="M-20-20h200v200h-200M34.21 25.25L25.98 20.5L17.75 25.25L17.75 34.75L25.98 39.5L34.21 34.75zM16.89 25.25L8.66 20.5L0.43 25.25L0.43 34.75L8.66 39.5L16.89 34.75zM8.23 10.25L0 5.5L-8.23 10.25L-8.23 19.75L0 24.5L8.23 19.75zM16.89-4.75L8.66-9.5L0.43-4.75L0.43 4.75L8.66 9.5L16.89 4.75zM34.21-4.75L25.98-9.5L17.75-4.75L17.75 4.75L25.98 9.5L34.21 4.75zM42.87 10.25L34.64 5.5L26.41 10.25L26.41 19.75L34.64 24.5L42.87 19.75zM25.55 10.25L17.32 5.5L9.09 10.25L9.09 19.75L17.32 24.5L25.55 19.75z" fill="rgba(116, 42, 42,1)" filter="url(#filter-doodad-1)"/>
      <path d="M-20-20h200v200h-200M44.21 25.25L35.98 20.5L27.75 25.25L27.75 34.75L35.98 39.5L44.21 34.75zM26.89 25.25L18.66 20.5L10.43 25.25L10.43 34.75L18.66 39.5L26.89 34.75zM18.23 10.25L10 5.5L1.77 10.25L1.77 19.75L10 24.5L18.23 19.75zM26.89-4.75L18.66-9.5L10.43-4.75L10.43 4.75L18.66 9.5L26.89 4.75zM44.21-4.75L35.98-9.5L27.75-4.75L27.75 4.75L35.98 9.5L44.21 4.75zM52.87 10.25L44.64 5.5L36.41 10.25L36.41 19.75L44.64 24.5L52.87 19.75zM61.53 25.25L53.3 20.5L45.07 25.25L45.07 34.75L53.3 39.5L61.53 34.75zM35.55 40.25L27.32 35.5L19.09 40.25L19.09 49.75L27.32 54.5L35.55 49.75zM9.57 25.25L1.34 20.5L-6.89 25.25L-6.89 34.75L1.34 39.5L9.57 34.75zM9.57-4.75L1.34-9.5L-6.89-4.75L-6.89 4.75L1.34 9.5L9.57 4.75zM35.55-19.75L27.32-24.5L19.09-19.75L19.09-10.25L27.32-5.5L35.55-10.25zM61.53-4.75L53.3-9.5L45.07-4.75L45.07 4.75L53.3 9.5L61.53 4.75zM52.87 40.25L44.64 35.5L36.41 40.25L36.41 49.75L44.64 54.5L52.87 49.75zM18.23 40.25L10 35.5L1.77 40.25L1.77 49.75L10 54.5L18.23 49.75zM0.91 10.25L-7.32 5.5L-15.55 10.25L-15.55 19.75L-7.32 24.5L0.91 19.75zM18.23-19.75L10-24.5L1.77-19.75L1.77-10.25L10-5.5L18.23-10.25zM52.87-19.75L44.64-24.5L36.41-19.75L36.41-10.25L44.64-5.5L52.87-10.25zM70.19 10.25L61.96 5.5L53.73 10.25L53.73 19.75L61.96 24.5L70.19 19.75zM35.55 10.25L27.32 5.5L19.09 10.25L19.09 19.75L27.32 24.5L35.55 19.75z" fill="rgba(245, 101, 101,1)"/>
    </pattern>
    <filter id="filter-doodad-1">
      <feTurbulence baseFrequency="0" numOctaves="2" type="fractalNoise" result="result1"/>
      <feDisplacementMap in2="result1" scale="0" result="result2" xChannelSelector="R" in="SourceGraphic"/>
      <feComposite in2="result2" in="SourceGraphic" operator="atop" result="fbSourceGraphic"/>
    </filter>
  </defs>
  <rect fill="url(#doodad)" height="200%" width="200%"/>
</svg>
